<svg width="19" height="17" viewBox="0 0 19 17" fill="none" xmlns="http://www.w3.org/2000/svg">
<path d="M17.9995 11.5435V13.6635C18.0004 13.8603 17.9517 14.0552 17.8563 14.2355C17.7609 14.4158 17.6211 14.5777 17.4457 14.7107C17.2702 14.8438 17.0632 14.9451 16.8376 15.0081C16.6121 15.0712 16.3732 15.0946 16.1361 15.0769C13.5059 14.8406 10.9794 14.0975 8.75957 12.9074C6.69433 11.8224 4.94337 10.3748 3.63104 8.66741C2.18648 6.82386 1.28751 4.72491 1.00694 2.5406C0.985578 2.34519 1.01367 2.14823 1.08942 1.96228C1.16518 1.77633 1.28693 1.60546 1.44694 1.46055C1.60694 1.31563 1.80169 1.19985 2.01879 1.12057C2.23589 1.04129 2.47057 1.00025 2.7079 1.00007H5.27217C5.68698 0.996693 6.08913 1.11814 6.40366 1.34177C6.71818 1.56539 6.92362 1.87594 6.98168 2.21554C7.08991 2.89398 7.29063 3.56013 7.58001 4.20127C7.69501 4.4542 7.7199 4.72909 7.65173 4.99336C7.58355 5.25763 7.42518 5.5002 7.19537 5.69234L6.10983 6.5898C7.32662 8.35898 9.09844 9.82383 11.2384 10.8298L12.3239 9.93234C12.5563 9.74234 12.8497 9.61141 13.1694 9.55504C13.489 9.49868 13.8215 9.51926 14.1274 9.61434C14.9029 9.85358 15.7087 10.0195 16.5293 10.109C16.9445 10.1574 17.3237 10.3303 17.5948 10.5948C17.8658 10.8593 18.0099 11.197 17.9995 11.5435Z" stroke="white" stroke-width="2" stroke-linecap="round" stroke-linejoin="round"/>
</svg>
