<svg width="258" height="296" viewBox="0 0 258 296" fill="none" xmlns="http://www.w3.org/2000/svg">
<path fill-rule="evenodd" clip-rule="evenodd" d="M134 0H123V84.2625L94.6922 66.9114C91.5317 64.9742 87.2634 66.2521 85.8978 69.5443L72.2991 102.328C71.4506 104.373 69.3908 105.759 67.0447 105.864L29.4442 107.535C25.6682 107.702 23.0193 111.079 23.9864 114.493L33.6166 148.48C34.2175 150.601 33.4235 152.853 31.591 154.225L2.22321 176.219C-0.726063 178.428 -0.743783 182.614 2.1867 184.844L31.3674 207.054C33.1881 208.44 33.9631 210.698 33.3443 212.814L23.4266 246.73C22.4306 250.136 25.0508 253.532 28.8253 253.728L66.4105 255.676C68.7556 255.798 70.8036 257.199 71.6348 259.251L84.9555 292.134C86.2932 295.436 90.5505 296.745 93.7273 294.832L125.361 275.775C127.334 274.586 129.873 274.595 131.837 275.799L163.308 295.089C166.468 297.026 170.737 295.748 172.102 292.456L185.701 259.672C186.549 257.627 188.609 256.241 190.955 256.136L228.556 254.465C232.332 254.298 234.981 250.921 234.014 247.507L224.383 213.52C223.782 211.399 224.577 209.147 226.409 207.775L255.777 185.781C258.726 183.572 258.744 179.386 255.813 177.156L226.633 154.946C224.812 153.56 224.037 151.302 224.656 149.186L234.573 115.27C235.569 111.864 232.949 108.468 229.175 108.272L191.59 106.324C189.244 106.202 187.196 104.801 186.365 102.749L173.045 69.8662C171.707 66.5639 167.449 65.2545 164.273 67.1683L134 85.4056V0Z" fill="white"/>
</svg>
