<svg width="103" height="33" viewBox="0 0 103 33" fill="none" xmlns="http://www.w3.org/2000/svg">
<path d="M21.4 9.12C21.1333 8.13333 20.84 7.4 20.52 6.92C20.2267 6.41333 19.8133 6.06667 19.28 5.88C18.7467 5.66667 18 5.56 17.04 5.56H15.24C14.68 5.56 14.3067 5.76 14.12 6.16C13.96 6.53333 13.88 7.34667 13.88 8.6V26.68C13.88 27.9067 14.0533 28.76 14.4 29.24C14.7467 29.72 15.4267 30.1067 16.44 30.4L17.36 30.64L16.88 32H8.12L7.6 31.36L8.12 30.64C8.78667 29.76 9.25333 28.8267 9.52 27.84C9.78667 26.8533 9.92 25.56 9.92 23.96V8.6C9.92 7.34667 9.82667 6.53333 9.64 6.16C9.48 5.76 9.12 5.56 8.56 5.56H6.76C5.8 5.56 5.05333 5.66667 4.52 5.88C3.98667 6.06667 3.56 6.41333 3.24 6.92C2.94667 7.4 2.66667 8.13333 2.4 9.12L2.16 10.04L0.8 9.56V2.44L1.44 1.92L2.16 2.44C2.90667 3 4.42667 3.28 6.72 3.28H17.08C19.3733 3.28 20.8933 3 21.64 2.44L22.36 1.92L23 2.44V9.56L21.64 10.04L21.4 9.12ZM22.7766 22.08C22.7766 19.9467 23.1632 18.0933 23.9366 16.52C24.7366 14.9467 25.8699 13.7333 27.3366 12.88C28.8299 12.0267 30.5632 11.6 32.5366 11.6C34.5099 11.6 36.2299 12.0267 37.6966 12.88C39.1632 13.7333 40.2966 14.9467 41.0966 16.52C41.8966 18.0933 42.2966 19.9467 42.2966 22.08C42.2966 24.1867 41.8966 26.04 41.0966 27.64C40.2966 29.2133 39.1632 30.4267 37.6966 31.28C36.2299 32.1333 34.5099 32.56 32.5366 32.56C30.5632 32.56 28.8299 32.1333 27.3366 31.28C25.8699 30.4267 24.7366 29.2133 23.9366 27.64C23.1632 26.04 22.7766 24.1867 22.7766 22.08ZM38.0966 22.2C38.0966 20.9467 37.9232 19.6667 37.5766 18.36C37.2299 17.0533 36.6432 15.9467 35.8166 15.04C35.0166 14.1333 33.9632 13.68 32.6566 13.68C31.5366 13.68 30.5366 14.04 29.6566 14.76C28.8032 15.4533 28.1366 16.44 27.6566 17.72C27.1766 19 26.9366 20.4667 26.9366 22.12C26.9366 24.6533 27.4299 26.6667 28.4166 28.16C29.4032 29.6533 30.7366 30.4 32.4166 30.4C33.5099 30.4 34.4832 30.0667 35.3366 29.4C36.2166 28.7067 36.8966 27.7467 37.3766 26.52C37.8566 25.2667 38.0966 23.8267 38.0966 22.2ZM47.7816 5.68C47.7816 5.17333 48.0616 4.61333 48.6216 4C49.2082 3.36 49.7416 3.04 50.2216 3.04C50.7282 3.04 51.2749 3.34667 51.8616 3.96C52.4482 4.57333 52.7416 5.14667 52.7416 5.68C52.7416 6.18666 52.4482 6.74666 51.8616 7.36C51.2749 7.97333 50.7282 8.28 50.2216 8.28C49.7682 8.28 49.2482 7.97333 48.6616 7.36C48.0749 6.74666 47.7816 6.18666 47.7816 5.68ZM52.0216 28.48C52.0216 29.3867 52.4216 29.84 53.2216 29.84C53.8882 29.84 54.5549 29.56 55.2216 29L55.9816 30.04C55.2882 30.8133 54.5416 31.4267 53.7416 31.88C52.9416 32.3333 52.1949 32.56 51.5016 32.56C50.4082 32.56 49.6216 32.2267 49.1416 31.56C48.6616 30.8933 48.4216 29.8133 48.4216 28.32V15.92C48.4216 15.6 48.3549 15.3733 48.2216 15.24C48.1149 15.1067 47.9149 15.04 47.6216 15.04H45.8616L45.5016 14C46.2749 13.3067 47.1549 12.7333 48.1416 12.28C49.1282 11.8267 50.0082 11.6 50.7816 11.6C51.1549 11.6 51.4616 11.72 51.7016 11.96C51.9416 12.2 52.0616 12.5067 52.0616 12.88L52.0216 28.48ZM64.0825 28.48C64.0825 29.3867 64.4825 29.84 65.2825 29.84C65.9492 29.84 66.6158 29.56 67.2825 29L68.0425 30.04C67.3492 30.8133 66.6025 31.4267 65.8025 31.88C65.0025 32.3333 64.2558 32.56 63.5625 32.56C62.4692 32.56 61.6825 32.2267 61.2025 31.56C60.7225 30.8933 60.4825 29.8133 60.4825 28.32V5.04C60.4825 4.72 60.4158 4.49333 60.2825 4.36C60.1758 4.22667 59.9758 4.16 59.6825 4.16H57.9225L57.5625 3.12C58.3358 2.42667 59.2158 1.85333 60.2025 1.4C61.1892 0.946664 62.0692 0.719997 62.8425 0.719997C63.2158 0.719997 63.5225 0.839997 63.7625 1.08C64.0025 1.32 64.1225 1.62666 64.1225 2L64.0825 28.48ZM87.5528 29C86.5661 30.1467 85.3928 31.0267 84.0328 31.64C82.6728 32.2533 81.2061 32.56 79.6328 32.56C77.7928 32.56 76.1795 32.1333 74.7928 31.28C73.4061 30.4267 72.3261 29.2267 71.5528 27.68C70.8061 26.1333 70.4328 24.3467 70.4328 22.32C70.4328 20.1867 70.8595 18.32 71.7128 16.72C72.5661 15.0933 73.7661 13.84 75.3128 12.96C76.8861 12.0533 78.7128 11.6 80.7928 11.6C82.2595 11.6 83.4995 11.88 84.5128 12.44C85.5528 12.9733 86.3261 13.6933 86.8328 14.6C87.3395 15.48 87.5928 16.44 87.5928 17.48C87.5928 18.6 87.2861 19.68 86.6728 20.72C86.0861 21.76 85.2195 22.6133 84.0728 23.28C82.9261 23.92 81.5528 24.24 79.9528 24.24C79.0995 24.24 78.1528 24.08 77.1128 23.76C76.0728 23.44 75.5528 22.9733 75.5528 22.36C75.5528 22.1467 75.6061 21.9467 75.7128 21.76C75.8461 21.5733 75.9928 21.48 76.1528 21.48C76.2328 21.48 76.4995 21.5733 76.9528 21.76C77.4061 21.92 77.9928 22 78.7128 22C80.3128 22 81.5528 21.5467 82.4328 20.64C83.3395 19.7333 83.7928 18.6667 83.7928 17.44C83.7928 16.4 83.4595 15.5067 82.7928 14.76C82.1261 13.9867 81.1928 13.6 79.9928 13.6C78.2861 13.6 76.9528 14.36 75.9928 15.88C75.0328 17.3733 74.5528 19.52 74.5528 22.32C74.5528 24.6933 75.0595 26.56 76.0728 27.92C77.0861 29.2533 78.5528 29.92 80.4728 29.92C82.8195 29.92 84.7661 29.16 86.3128 27.64C86.4195 27.5333 86.5395 27.48 86.6728 27.48C86.8861 27.48 87.1128 27.6133 87.3528 27.88C87.5928 28.12 87.7128 28.3733 87.7128 28.64C87.7128 28.7733 87.6595 28.8933 87.5528 29ZM102.605 12.12C102.605 12.68 102.525 13.1867 102.365 13.64C102.205 14.0933 101.978 14.4267 101.685 14.64H97.4047V27.52C97.4047 28.3467 97.5247 28.9333 97.7647 29.28C98.0047 29.6267 98.3914 29.8 98.9247 29.8C99.7247 29.8 100.631 29.3733 101.645 28.52L102.405 29.56C101.711 30.4667 100.885 31.2 99.9247 31.76C98.9647 32.2933 98.058 32.56 97.2047 32.56C96.1114 32.56 95.258 32.2267 94.6447 31.56C94.058 30.8667 93.7647 29.92 93.7647 28.72V14.64H90.2447C90.2447 13.92 90.298 13.4533 90.4047 13.24C90.5114 13.0267 90.778 12.8667 91.2047 12.76C92.618 12.3867 93.618 11.7867 94.2047 10.96C94.818 10.1067 95.258 9.01333 95.5247 7.68C95.6047 7.25333 95.738 6.98667 95.9247 6.88C96.138 6.77333 96.6314 6.72 97.4047 6.72V12.12H102.605Z" fill="black"/>
</svg>
